<svg width="159" height="160" viewBox="0 0 159 160" fill="none" xmlns="http://www.w3.org/2000/svg">
<mask id="mask0_647_1592" style="mask-type:alpha" maskUnits="userSpaceOnUse" x="0" y="0" width="159" height="160">
<rect y="0.5" width="159" height="159" rx="44.8462" fill="#D9D9D9"/>
</mask>
<g mask="url(#mask0_647_1592)">
<path d="M159.042 0.5H0V159.542H159.042V0.5Z" fill="#E72264"/>
<g filter="url(#filter0_i_647_1592)">
<path d="M121.18 125.05C121.001 125.36 120.671 125.551 120.313 125.551H97.2517C96.894 125.551 96.5636 125.36 96.3851 125.05L84.8523 105.027C84.6744 104.718 84.6744 104.338 84.8523 104.029L96.3851 84.0058C96.5636 83.6959 96.894 83.5049 97.2517 83.5049H120.313C120.671 83.5049 121.001 83.6959 121.18 84.0058L132.713 104.029C132.89 104.338 132.89 104.718 132.713 105.027L121.18 125.05ZM108.37 62.0521C108.747 61.3706 109.723 61.3624 110.112 62.0374L117.051 74.1016C117.434 74.7683 116.953 75.6002 116.184 75.6002H102.373C101.581 75.6002 101.104 74.7244 101.532 74.0589L102.938 71.875L108.37 62.0521ZM56.0594 49.8083C56.0564 49.6368 56.0594 51.7293 56.0594 51.5549C56.0594 39.099 66.1304 29 78.5547 29C90.979 29 101.038 37.5096 101.038 49.9685C101.038 50.0599 101.039 50.5866 101.039 51.0921C101.04 51.6378 100.601 52.0753 100.055 52.0753H57.066C56.5157 52.0753 56.0688 51.6308 56.066 51.0806L56.0594 49.8083ZM40.6335 75.6002C39.8645 75.6002 39.3833 74.7683 39.7667 74.1016L46.7229 62.0076C47.1074 61.3391 48.072 61.3391 48.4565 62.0076L55.4127 74.1016C55.7961 74.7683 55.3149 75.6002 54.5459 75.6002H41.0914H40.6335ZM69.9892 104.444C69.9886 104.443 69.9877 104.443 69.9877 104.444C69.9866 116.902 59.916 127 47.4924 127C35.068 127 25 116.904 25 104.445C25 91.9863 35.071 81.8873 47.4953 81.8873C59.919 81.8873 69.9895 91.9851 69.9907 104.443C69.9907 104.444 69.9897 104.444 69.9892 104.444ZM98.8059 59.9771C99.5754 59.9771 100.057 60.81 99.6721 61.4767L79.2441 96.9012C78.8593 97.5685 77.8963 97.5685 77.5115 96.9012L57.0862 61.4795C56.7018 60.8128 57.1829 59.98 57.9524 59.9799L95.1443 59.9771H98.8059ZM84.567 125.578H71.3007C70.5316 125.578 70.0504 124.746 70.4338 124.079L77.39 111.985C77.7745 111.316 78.7391 111.316 79.1237 111.985L86.0798 124.079C86.4633 124.746 85.9821 125.578 85.213 125.578H84.567Z" fill="white"/>
</g>
</g>
<defs>
<filter id="filter0_i_647_1592" x="25" y="29" width="107.846" height="102" filterUnits="userSpaceOnUse" color-interpolation-filters="sRGB">
<feFlood flood-opacity="0" result="BackgroundImageFix"/>
<feBlend mode="normal" in="SourceGraphic" in2="BackgroundImageFix" result="shape"/>
<feColorMatrix in="SourceAlpha" type="matrix" values="0 0 0 0 0 0 0 0 0 0 0 0 0 0 0 0 0 0 127 0" result="hardAlpha"/>
<feOffset dy="4"/>
<feGaussianBlur stdDeviation="2"/>
<feComposite in2="hardAlpha" operator="arithmetic" k2="-1" k3="1"/>
<feColorMatrix type="matrix" values="0 0 0 0 0 0 0 0 0 0 0 0 0 0 0 0 0 0 0.25 0"/>
<feBlend mode="normal" in2="shape" result="effect1_innerShadow_647_1592"/>
</filter>
</defs>
</svg>
