<svg width="38" height="49" viewBox="0 0 38 49" fill="none" xmlns="http://www.w3.org/2000/svg">
<g clip-path="url(#clip0_411_24)">
<path d="M14.2699 42.3372C12.1277 40.8866 10.0024 39.4023 7.91084 37.8505C6.8988 37.1083 5.90362 36.3493 4.90843 35.5902C3.82892 34.7469 2.7494 33.6842 1.46747 33.1782C0.387952 32.7565 1.7259e-07 34.5445 1.64947e-07 35.1854C1.48252e-07 36.5854 0.438554 38.0023 1.33253 39.1155C2.22651 40.2288 3.54217 41.0722 4.67229 41.9493C5.70121 42.7421 6.73012 43.518 7.7759 44.2939C9.86747 45.8288 11.9759 47.33 14.1349 48.7637C15.4506 49.6577 16.159 47.9878 16.159 46.8915C16.159 45.3565 15.6361 43.2649 14.2699 42.3372Z" fill="white"/>
<path d="M24.0029 25.318C18.4535 19.5831 13.1234 13.612 7.9788 7.48909C7.67519 7.13487 7.11856 6.73005 6.61254 6.86499C6.10651 6.99993 5.83663 7.6409 5.73543 8.09632C5.39808 9.61439 5.98844 11.4023 6.93302 12.5831C11.9933 18.824 17.3402 24.8288 22.9234 30.6144C23.2607 30.9686 23.8005 31.424 24.3571 31.2722C24.9137 31.1204 25.1836 30.4626 25.268 29.9903C25.5378 28.4891 25.0993 26.4481 24.0198 25.318L24.0029 25.318Z" fill="white"/>
<path d="M36.9738 20.73C36.181 17.8288 35.4726 14.9108 34.8654 11.9758C34.7979 11.6385 34.7304 11.3011 34.6629 10.9638C34.5111 10.1879 34.7135 11.2168 34.5617 10.4915C34.4099 9.69871 34.2581 8.90593 34.1232 8.11316C33.8533 6.62883 33.6003 5.14449 33.3641 3.66015C33.1617 2.47943 32.6051 0.32039 31.1882 0.0336432C29.7714 -0.253104 29.7208 1.9734 29.822 2.79991C30.6316 9.15895 31.9979 15.4674 33.6846 21.6409C33.9376 22.6023 34.8485 24.8626 36.2147 24.4915C37.581 24.1204 37.2268 21.6577 36.9738 20.7469L36.9738 20.73Z" fill="white"/>
</g>
<defs>
<clipPath id="clip0_411_24">
<rect width="49" height="37.2096" fill="white" transform="translate(0 49) rotate(-90)"/>
</clipPath>
</defs>
</svg>
