<svg width="835" height="224" viewBox="0 0 835 224" fill="none" xmlns="http://www.w3.org/2000/svg">
<mask id="mask0_234_1270" style="mask-type:alpha" maskUnits="userSpaceOnUse" x="0" y="32" width="159" height="160">
<rect y="32.5" width="159" height="159" rx="44.8462" fill="#D9D9D9"/>
</mask>
<g mask="url(#mask0_234_1270)">
<path d="M159.042 32.5H0V191.542H159.042V32.5Z" fill="#E72264"/>
</g>
<path d="M179.18 164L218.66 67.68H226.36L265.42 164H254.36L220.34 78.88H224.4L190.1 164H179.18ZM197.24 138.94V129.84H247.64V138.94H197.24ZM303.56 165.4C300.013 165.4 296.607 164.933 293.34 164C290.073 162.973 287.087 161.573 284.38 159.8C281.767 158.027 279.48 155.927 277.52 153.5L283.82 147.06C286.433 150.233 289.373 152.613 292.64 154.2C296 155.693 299.733 156.44 303.84 156.44C308.227 156.44 311.633 155.6 314.06 153.92C316.58 152.24 317.84 149.907 317.84 146.92C317.84 144.12 316.953 141.927 315.18 140.34C313.407 138.753 311.12 137.493 308.32 136.56C305.613 135.627 302.72 134.74 299.64 133.9C296.56 132.967 293.62 131.847 290.82 130.54C288.02 129.14 285.733 127.227 283.96 124.8C282.28 122.373 281.44 119.2 281.44 115.28C281.44 111.547 282.327 108.327 284.1 105.62C285.967 102.82 288.58 100.673 291.94 99.18C295.393 97.5933 299.453 96.8 304.12 96.8C309.067 96.8 313.547 97.6867 317.56 99.46C321.573 101.233 324.793 103.847 327.22 107.3L320.92 113.6C318.96 111.08 316.487 109.167 313.5 107.86C310.607 106.46 307.34 105.76 303.7 105.76C299.5 105.76 296.28 106.6 294.04 108.28C291.893 109.867 290.82 111.967 290.82 114.58C290.82 117.1 291.707 119.107 293.48 120.6C295.253 122 297.493 123.167 300.2 124.1C303 124.94 305.94 125.827 309.02 126.76C312.1 127.6 315.04 128.767 317.84 130.26C320.64 131.66 322.88 133.62 324.56 136.14C326.333 138.567 327.22 141.88 327.22 146.08C327.22 151.96 325.073 156.673 320.78 160.22C316.58 163.673 310.84 165.4 303.56 165.4ZM365.696 165.4C362.149 165.4 358.743 164.933 355.476 164C352.209 162.973 349.223 161.573 346.516 159.8C343.903 158.027 341.616 155.927 339.656 153.5L345.956 147.06C348.569 150.233 351.509 152.613 354.776 154.2C358.136 155.693 361.869 156.44 365.976 156.44C370.363 156.44 373.769 155.6 376.196 153.92C378.716 152.24 379.976 149.907 379.976 146.92C379.976 144.12 379.089 141.927 377.316 140.34C375.543 138.753 373.256 137.493 370.456 136.56C367.749 135.627 364.856 134.74 361.776 133.9C358.696 132.967 355.756 131.847 352.956 130.54C350.156 129.14 347.869 127.227 346.096 124.8C344.416 122.373 343.576 119.2 343.576 115.28C343.576 111.547 344.463 108.327 346.236 105.62C348.103 102.82 350.716 100.673 354.076 99.18C357.529 97.5933 361.589 96.8 366.256 96.8C371.203 96.8 375.683 97.6867 379.696 99.46C383.709 101.233 386.929 103.847 389.356 107.3L383.056 113.6C381.096 111.08 378.623 109.167 375.636 107.86C372.743 106.46 369.476 105.76 365.836 105.76C361.636 105.76 358.416 106.6 356.176 108.28C354.029 109.867 352.956 111.967 352.956 114.58C352.956 117.1 353.843 119.107 355.616 120.6C357.389 122 359.629 123.167 362.336 124.1C365.136 124.94 368.076 125.827 371.156 126.76C374.236 127.6 377.176 128.767 379.976 130.26C382.776 131.66 385.016 133.62 386.696 136.14C388.469 138.567 389.356 141.88 389.356 146.08C389.356 151.96 387.209 156.673 382.916 160.22C378.716 163.673 372.976 165.4 365.696 165.4ZM438.052 165.4C431.425 165.4 425.499 163.907 420.272 160.92C415.045 157.933 410.892 153.827 407.812 148.6C404.825 143.373 403.332 137.493 403.332 130.96C403.332 124.52 404.825 118.733 407.812 113.6C410.799 108.373 414.859 104.267 419.992 101.28C425.125 98.2933 430.865 96.8 437.212 96.8C443.185 96.8 448.459 98.1533 453.032 100.86C457.699 103.567 461.339 107.347 463.952 112.2C466.659 116.96 468.012 122.467 468.012 128.72C468.012 129.467 467.965 130.353 467.872 131.38C467.779 132.313 467.592 133.433 467.312 134.74H410.332V126.34H461.992L458.492 129.42C458.585 124.567 457.745 120.413 455.972 116.96C454.292 113.413 451.819 110.707 448.552 108.84C445.379 106.88 441.505 105.9 436.932 105.9C432.172 105.9 428.019 106.927 424.472 108.98C420.925 111.033 418.125 113.927 416.072 117.66C414.112 121.3 413.132 125.64 413.132 130.68C413.132 135.72 414.159 140.153 416.212 143.98C418.359 147.807 421.299 150.793 425.032 152.94C428.859 155.087 433.245 156.16 438.192 156.16C442.205 156.16 445.892 155.46 449.252 154.06C452.612 152.567 455.459 150.373 457.792 147.48L464.092 153.92C461.012 157.56 457.185 160.407 452.612 162.46C448.132 164.42 443.279 165.4 438.052 165.4ZM493.563 164V70.48H503.363V164H493.563ZM476.903 107.02V98.2H519.883V107.02H476.903ZM545.142 125.36V116.26H573.562C577.482 116.26 580.982 115.467 584.062 113.88C587.236 112.293 589.709 110.053 591.482 107.16C593.349 104.173 594.282 100.627 594.282 96.52C594.282 92.4133 593.349 88.9133 591.482 86.02C589.709 83.0333 587.236 80.7467 584.062 79.16C580.982 77.48 577.482 76.64 573.562 76.64H545.142V67.68H574.262C580.049 67.68 585.229 68.8933 589.802 71.32C594.376 73.6533 597.969 76.9667 600.582 81.26C603.289 85.5533 604.642 90.64 604.642 96.52C604.642 102.307 603.289 107.393 600.582 111.78C597.969 116.073 594.376 119.433 589.802 121.86C585.229 124.193 580.049 125.36 574.262 125.36H545.142ZM538.562 164V67.68H548.782V164H538.562ZM648.48 165.4C642.226 165.4 636.626 163.907 631.68 160.92C626.733 157.84 622.813 153.733 619.92 148.6C617.12 143.467 615.72 137.68 615.72 131.24C615.72 124.707 617.12 118.873 619.92 113.74C622.813 108.513 626.733 104.407 631.68 101.42C636.626 98.34 642.18 96.8 648.34 96.8C653.38 96.8 657.86 97.8267 661.78 99.88C665.793 101.84 669.013 104.64 671.44 108.28C673.96 111.827 675.5 115.98 676.06 120.74V141.32C675.5 146.08 673.96 150.28 671.44 153.92C669.013 157.56 665.793 160.407 661.78 162.46C657.86 164.42 653.426 165.4 648.48 165.4ZM650.02 156.02C656.833 156.02 662.293 153.733 666.4 149.16C670.6 144.587 672.7 138.567 672.7 131.1C672.7 126.153 671.72 121.813 669.76 118.08C667.893 114.253 665.233 111.313 661.78 109.26C658.42 107.113 654.453 106.04 649.88 106.04C645.213 106.04 641.06 107.113 637.42 109.26C633.873 111.407 631.026 114.393 628.88 118.22C626.826 121.953 625.8 126.247 625.8 131.1C625.8 135.953 626.826 140.247 628.88 143.98C631.026 147.713 633.92 150.653 637.56 152.8C641.2 154.947 645.353 156.02 650.02 156.02ZM672.14 164V146.36L674.1 130.12L672.14 114.3V98.2H681.94V164H672.14ZM734.574 165.4C728.134 165.4 722.301 163.907 717.074 160.92C711.941 157.84 707.834 153.687 704.754 148.46C701.768 143.233 700.274 137.4 700.274 130.96C700.274 124.52 701.768 118.733 704.754 113.6C707.834 108.373 711.941 104.267 717.074 101.28C722.301 98.2933 728.134 96.8 734.574 96.8C739.521 96.8 744.141 97.7333 748.434 99.6C752.728 101.467 756.368 104.08 759.354 107.44L752.914 114.02C750.674 111.5 747.968 109.587 744.794 108.28C741.621 106.88 738.214 106.18 734.574 106.18C729.908 106.18 725.754 107.253 722.114 109.4C718.474 111.547 715.628 114.487 713.574 118.22C711.521 121.86 710.494 126.107 710.494 130.96C710.494 135.72 711.521 140.013 713.574 143.84C715.628 147.573 718.474 150.513 722.114 152.66C725.754 154.807 729.908 155.88 734.574 155.88C738.308 155.88 741.761 155.227 744.934 153.92C748.108 152.52 750.814 150.56 753.054 148.04L759.634 154.62C756.554 158.073 752.821 160.733 748.434 162.6C744.141 164.467 739.521 165.4 734.574 165.4ZM818.604 164L785.004 130.26L818.044 98.2H830.224L794.244 132.78L794.524 127.18L831.624 164H818.604ZM776.184 164V64.88H785.984V164H776.184Z" fill="#E72264"/>
<path d="M179.18 164L174.554 162.104C173.921 163.646 174.099 165.401 175.028 166.786C175.956 168.17 177.513 169 179.18 169V164ZM218.66 67.68V62.68C216.631 62.68 214.803 63.9062 214.034 65.7837L218.66 67.68ZM226.36 67.68L230.994 65.801C230.228 63.9144 228.396 62.68 226.36 62.68V67.68ZM265.42 164V169C267.083 169 268.638 168.173 269.567 166.793C270.496 165.414 270.679 163.662 270.054 162.121L265.42 164ZM254.36 164L249.717 165.856C250.476 167.755 252.315 169 254.36 169V164ZM220.34 78.88V73.88C218.681 73.88 217.13 74.7027 216.2 76.0763C215.27 77.4498 215.081 79.1952 215.697 80.7356L220.34 78.88ZM224.4 78.88L229.038 80.7488C229.659 79.2078 229.474 77.459 228.544 76.0821C227.614 74.7052 226.061 73.88 224.4 73.88V78.88ZM190.1 164V169C192.14 169 193.975 167.761 194.738 165.869L190.1 164ZM197.24 138.94H192.24C192.24 141.701 194.479 143.94 197.24 143.94V138.94ZM197.24 129.84V124.84C194.479 124.84 192.24 127.079 192.24 129.84H197.24ZM247.64 129.84H252.64C252.64 127.079 250.401 124.84 247.64 124.84V129.84ZM247.64 138.94V143.94C250.401 143.94 252.64 141.701 252.64 138.94H247.64ZM183.806 165.896L223.286 69.5763L214.034 65.7837L174.554 162.104L183.806 165.896ZM218.66 72.68H226.36V62.68H218.66V72.68ZM221.726 69.559L260.787 165.879L270.054 162.121L230.994 65.801L221.726 69.559ZM265.42 159H254.36V169H265.42V159ZM259.003 162.144L224.983 77.0244L215.697 80.7356L249.717 165.856L259.003 162.144ZM220.34 83.88H224.4V73.88H220.34V83.88ZM219.762 77.0112L185.462 162.131L194.738 165.869L229.038 80.7488L219.762 77.0112ZM190.1 159H179.18V169H190.1V159ZM202.24 138.94V129.84H192.24V138.94H202.24ZM197.24 134.84H247.64V124.84H197.24V134.84ZM242.64 129.84V138.94H252.64V129.84H242.64ZM247.64 133.94H197.24V143.94H247.64V133.94ZM293.34 164L291.841 168.77C291.883 168.783 291.925 168.796 291.967 168.808L293.34 164ZM284.38 159.8L281.573 163.937C281.595 163.953 281.617 163.968 281.64 163.982L284.38 159.8ZM277.52 153.5L273.946 150.004C272.173 151.816 272.037 154.669 273.63 156.642L277.52 153.5ZM283.82 147.06L287.68 143.881C286.777 142.786 285.452 142.125 284.034 142.065C282.616 142.004 281.239 142.549 280.246 143.564L283.82 147.06ZM292.64 154.2L290.456 158.698C290.507 158.722 290.558 158.746 290.609 158.769L292.64 154.2ZM314.06 153.92L311.287 149.76C311.262 149.776 311.238 149.792 311.214 149.809L314.06 153.92ZM315.18 140.34L318.514 136.614L318.514 136.614L315.18 140.34ZM308.32 136.56L306.69 141.287C306.706 141.292 306.723 141.298 306.739 141.303L308.32 136.56ZM299.64 133.9L298.19 138.685C298.235 138.699 298.28 138.712 298.325 138.724L299.64 133.9ZM290.82 130.54L288.584 135.012C288.624 135.032 288.665 135.052 288.706 135.071L290.82 130.54ZM283.96 124.8L279.849 127.646C279.873 127.681 279.898 127.716 279.923 127.75L283.96 124.8ZM284.1 105.62L279.94 102.846C279.933 102.858 279.925 102.869 279.918 102.88L284.1 105.62ZM291.94 99.18L293.971 103.749C293.99 103.741 294.009 103.732 294.028 103.723L291.94 99.18ZM317.56 99.46L319.581 94.8866L319.581 94.8866L317.56 99.46ZM327.22 107.3L330.756 110.836C332.474 109.118 332.708 106.413 331.311 104.425L327.22 107.3ZM320.92 113.6L316.973 116.67C317.854 117.802 319.178 118.501 320.609 118.59C322.041 118.679 323.442 118.15 324.456 117.136L320.92 113.6ZM313.5 107.86L311.322 112.361C311.38 112.389 311.438 112.415 311.496 112.441L313.5 107.86ZM294.04 108.28L297.012 112.301C297.021 112.294 297.031 112.287 297.04 112.28L294.04 108.28ZM293.48 120.6L290.259 124.425C290.3 124.458 290.341 124.492 290.382 124.524L293.48 120.6ZM300.2 124.1L298.57 128.827C298.634 128.849 298.699 128.87 298.763 128.889L300.2 124.1ZM309.02 126.76L307.57 131.545C307.615 131.559 307.66 131.572 307.705 131.584L309.02 126.76ZM317.84 130.26L315.487 134.672C315.526 134.692 315.565 134.713 315.604 134.732L317.84 130.26ZM324.56 136.14L320.4 138.913C320.44 138.973 320.481 139.032 320.523 139.09L324.56 136.14ZM320.78 160.22L323.956 164.082L323.965 164.075L320.78 160.22ZM303.56 160.4C300.458 160.4 297.514 159.993 294.714 159.192L291.967 168.808C295.699 169.874 299.569 170.4 303.56 170.4V160.4ZM294.839 159.23C291.986 158.333 289.421 157.125 287.12 155.618L281.64 163.982C284.753 166.022 288.161 167.613 291.841 168.77L294.839 159.23ZM287.188 155.663C284.977 154.163 283.056 152.397 281.41 150.358L273.63 156.642C275.904 159.457 278.557 161.891 281.573 163.937L287.188 155.663ZM281.094 156.996L287.394 150.556L280.246 143.564L273.946 150.004L281.094 156.996ZM279.961 150.239C282.97 153.894 286.462 156.758 290.456 158.698L294.825 149.702C292.285 148.469 289.897 146.573 287.68 143.881L279.961 150.239ZM290.609 158.769C294.68 160.578 299.116 161.44 303.84 161.44V151.44C300.351 151.44 297.321 150.809 294.671 149.631L290.609 158.769ZM303.84 161.44C308.776 161.44 313.327 160.509 316.906 158.031L311.214 149.809C309.94 150.691 307.677 151.44 303.84 151.44V161.44ZM316.834 158.08C320.721 155.489 322.84 151.607 322.84 146.92H312.84C312.84 148.207 312.439 148.991 311.287 149.76L316.834 158.08ZM322.84 146.92C322.84 142.973 321.537 139.318 318.514 136.614L311.846 144.066C312.37 144.535 312.84 145.267 312.84 146.92H322.84ZM318.514 136.614C316.126 134.477 313.198 132.915 309.901 131.817L306.739 141.303C309.042 142.071 310.688 143.03 311.846 144.066L318.514 136.614ZM309.95 131.833C307.129 130.86 304.13 129.942 300.956 129.076L298.325 138.724C301.311 139.538 304.098 140.393 306.69 141.287L309.95 131.833ZM301.09 129.115C298.228 128.248 295.511 127.211 292.935 126.009L288.706 135.071C291.73 136.482 294.892 137.686 298.19 138.685L301.09 129.115ZM293.056 126.068C290.939 125.009 289.28 123.606 287.997 121.85L279.923 127.75C282.187 130.847 285.102 133.271 288.584 135.012L293.056 126.068ZM288.071 121.954C287.133 120.598 286.44 118.512 286.44 115.28H276.44C276.44 119.888 277.428 124.148 279.849 127.646L288.071 121.954ZM286.44 115.28C286.44 112.367 287.121 110.133 288.282 108.36L279.918 102.88C277.533 106.52 276.44 110.727 276.44 115.28H286.44ZM288.26 108.393C289.553 106.454 291.393 104.895 293.971 103.749L289.909 94.6109C285.767 96.452 282.38 99.1858 279.94 102.846L288.26 108.393ZM294.028 103.723C296.695 102.498 300.014 101.8 304.12 101.8V91.8C298.893 91.8 294.092 92.6886 289.853 94.6366L294.028 103.723ZM304.12 101.8C308.46 101.8 312.239 102.575 315.539 104.033L319.581 94.8866C314.855 92.7982 309.674 91.8 304.12 91.8V101.8ZM315.539 104.033C318.755 105.455 321.247 107.496 323.129 110.175L331.311 104.425C328.34 100.198 324.392 97.0122 319.581 94.8866L315.539 104.033ZM323.685 103.764L317.385 110.064L324.456 117.136L330.756 110.836L323.685 103.764ZM324.867 110.53C322.384 107.338 319.237 104.912 315.504 103.279L311.496 112.441C313.736 113.421 315.536 114.822 316.973 116.67L324.867 110.53ZM315.678 103.359C312.021 101.59 307.994 100.76 303.7 100.76V110.76C306.686 110.76 309.193 111.33 311.322 112.361L315.678 103.359ZM303.7 100.76C298.932 100.76 294.482 101.698 291.04 104.28L297.04 112.28C298.078 111.502 300.068 110.76 303.7 110.76V100.76ZM291.068 104.259C287.678 106.765 285.82 110.341 285.82 114.58H295.82C295.82 113.593 296.109 112.969 297.012 112.301L291.068 104.259ZM285.82 114.58C285.82 118.429 287.251 121.891 290.259 124.425L296.701 116.775C296.162 116.322 295.82 115.771 295.82 114.58H285.82ZM290.382 124.524C292.696 126.351 295.468 127.757 298.57 128.827L301.83 119.373C299.519 118.576 297.811 117.649 296.578 116.676L290.382 124.524ZM298.763 128.889C301.559 129.728 304.494 130.613 307.57 131.545L310.47 121.975C307.386 121.04 304.442 120.152 301.637 119.311L298.763 128.889ZM307.705 131.584C310.427 132.326 313.019 133.355 315.487 134.672L320.193 125.848C317.062 124.178 313.774 122.874 310.336 121.936L307.705 131.584ZM315.604 134.732C317.653 135.757 319.219 137.142 320.4 138.913L328.72 133.366C326.541 130.098 323.627 127.563 320.076 125.788L315.604 134.732ZM320.523 139.09C321.466 140.38 322.22 142.53 322.22 146.08H332.22C332.22 141.23 331.201 136.754 328.597 133.19L320.523 139.09ZM322.22 146.08C322.22 150.564 320.668 153.828 317.596 156.365L323.965 164.075C329.479 159.519 332.22 153.356 332.22 146.08H322.22ZM317.605 156.358C314.562 158.859 310.076 160.4 303.56 160.4V170.4C311.605 170.4 318.598 168.487 323.956 164.082L317.605 156.358ZM355.476 164L353.977 168.77C354.019 168.783 354.06 168.796 354.102 168.808L355.476 164ZM346.516 159.8L343.709 163.937C343.731 163.953 343.753 163.968 343.776 163.982L346.516 159.8ZM339.656 153.5L336.082 150.004C334.309 151.816 334.173 154.669 335.766 156.642L339.656 153.5ZM345.956 147.06L349.816 143.881C348.913 142.786 347.588 142.125 346.17 142.065C344.752 142.004 343.375 142.549 342.382 143.564L345.956 147.06ZM354.776 154.2L352.592 158.698C352.642 158.722 352.694 158.746 352.745 158.769L354.776 154.2ZM376.196 153.92L373.423 149.76C373.398 149.776 373.374 149.792 373.35 149.809L376.196 153.92ZM377.316 140.34L380.65 136.614L380.65 136.614L377.316 140.34ZM370.456 136.56L368.826 141.287C368.842 141.292 368.859 141.298 368.875 141.303L370.456 136.56ZM361.776 133.9L360.326 138.685C360.371 138.699 360.416 138.712 360.461 138.724L361.776 133.9ZM352.956 130.54L350.72 135.012C350.76 135.032 350.801 135.052 350.842 135.071L352.956 130.54ZM346.096 124.8L341.985 127.646C342.009 127.681 342.034 127.716 342.059 127.75L346.096 124.8ZM346.236 105.62L342.076 102.846C342.068 102.858 342.061 102.869 342.054 102.88L346.236 105.62ZM354.076 99.18L356.107 103.749C356.126 103.741 356.145 103.732 356.164 103.723L354.076 99.18ZM379.696 99.46L381.717 94.8866L381.717 94.8866L379.696 99.46ZM389.356 107.3L392.892 110.836C394.61 109.118 394.844 106.413 393.447 104.425L389.356 107.3ZM383.056 113.6L379.109 116.67C379.99 117.802 381.314 118.501 382.745 118.59C384.177 118.679 385.578 118.15 386.592 117.136L383.056 113.6ZM375.636 107.86L373.458 112.361C373.516 112.389 373.574 112.415 373.632 112.441L375.636 107.86ZM356.176 108.28L359.148 112.301C359.157 112.294 359.167 112.287 359.176 112.28L356.176 108.28ZM355.616 120.6L352.395 124.425C352.436 124.458 352.477 124.492 352.518 124.524L355.616 120.6ZM362.336 124.1L360.706 128.827C360.77 128.849 360.835 128.87 360.899 128.889L362.336 124.1ZM371.156 126.76L369.706 131.545C369.751 131.559 369.796 131.572 369.841 131.584L371.156 126.76ZM379.976 130.26L377.623 134.672C377.662 134.692 377.701 134.713 377.74 134.732L379.976 130.26ZM386.696 136.14L382.536 138.913C382.576 138.973 382.617 139.032 382.659 139.09L386.696 136.14ZM382.916 160.22L386.092 164.082L386.101 164.075L382.916 160.22ZM365.696 160.4C362.594 160.4 359.65 159.993 356.85 159.192L354.102 168.808C357.835 169.874 361.705 170.4 365.696 170.4V160.4ZM356.975 159.23C354.122 158.333 351.556 157.125 349.256 155.618L343.776 163.982C346.889 166.022 350.297 167.613 353.977 168.77L356.975 159.23ZM349.324 155.663C347.113 154.163 345.192 152.397 343.546 150.358L335.766 156.642C338.04 159.457 340.693 161.891 343.709 163.937L349.324 155.663ZM343.23 156.996L349.53 150.556L342.382 143.564L336.082 150.004L343.23 156.996ZM342.096 150.239C345.106 153.894 348.598 156.758 352.592 158.698L356.961 149.702C354.421 148.469 352.032 146.573 349.816 143.881L342.096 150.239ZM352.745 158.769C356.816 160.578 361.252 161.44 365.976 161.44V151.44C362.487 151.44 359.457 150.809 356.807 149.631L352.745 158.769ZM365.976 161.44C370.912 161.44 375.463 160.509 379.042 158.031L373.35 149.809C372.076 150.691 369.813 151.44 365.976 151.44V161.44ZM378.97 158.08C382.857 155.489 384.976 151.607 384.976 146.92H374.976C374.976 148.207 374.575 148.991 373.423 149.76L378.97 158.08ZM384.976 146.92C384.976 142.973 383.673 139.318 380.65 136.614L373.982 144.066C374.506 144.535 374.976 145.267 374.976 146.92H384.976ZM380.65 136.614C378.261 134.477 375.334 132.915 372.037 131.817L368.875 141.303C371.178 142.071 372.824 143.03 373.982 144.066L380.65 136.614ZM372.086 131.833C369.265 130.86 366.266 129.942 363.092 129.076L360.461 138.724C363.447 139.538 366.234 140.393 368.826 141.287L372.086 131.833ZM363.226 129.115C360.364 128.248 357.647 127.211 355.071 126.009L350.842 135.071C353.866 136.482 357.028 137.686 360.326 138.685L363.226 129.115ZM355.192 126.068C353.075 125.009 351.416 123.606 350.133 121.85L342.059 127.75C344.323 130.847 347.238 133.271 350.72 135.012L355.192 126.068ZM350.207 121.954C349.269 120.598 348.576 118.512 348.576 115.28H338.576C338.576 119.888 339.564 124.148 341.985 127.646L350.207 121.954ZM348.576 115.28C348.576 112.367 349.257 110.133 350.418 108.36L342.054 102.88C339.669 106.52 338.576 110.727 338.576 115.28H348.576ZM350.396 108.393C351.689 106.454 353.529 104.895 356.107 103.749L352.045 94.6109C347.903 96.452 344.516 99.1858 342.076 102.846L350.396 108.393ZM356.164 103.723C358.83 102.498 362.15 101.8 366.256 101.8V91.8C361.029 91.8 356.228 92.6886 351.989 94.6366L356.164 103.723ZM366.256 101.8C370.596 101.8 374.375 102.575 377.675 104.033L381.717 94.8866C376.991 92.7982 371.81 91.8 366.256 91.8V101.8ZM377.675 104.033C380.891 105.455 383.382 107.496 385.265 110.175L393.447 104.425C390.476 100.198 386.527 97.0122 381.717 94.8866L377.675 104.033ZM385.821 103.764L379.521 110.064L386.592 117.136L392.892 110.836L385.821 103.764ZM387.003 110.53C384.52 107.338 381.373 104.912 377.64 103.279L373.632 112.441C375.872 113.421 377.672 114.822 379.109 116.67L387.003 110.53ZM377.814 103.359C374.157 101.59 370.13 100.76 365.836 100.76V110.76C368.822 110.76 371.329 111.33 373.458 112.361L377.814 103.359ZM365.836 100.76C361.068 100.76 356.618 101.698 353.176 104.28L359.176 112.28C360.214 111.502 362.204 110.76 365.836 110.76V100.76ZM353.204 104.259C349.814 106.765 347.956 110.341 347.956 114.58H357.956C357.956 113.593 358.245 112.969 359.148 112.301L353.204 104.259ZM347.956 114.58C347.956 118.429 349.387 121.891 352.395 124.425L358.837 116.775C358.298 116.322 357.956 115.771 357.956 114.58H347.956ZM352.518 124.524C354.832 126.351 357.604 127.757 360.706 128.827L363.966 119.373C361.655 118.576 359.947 117.649 358.714 116.676L352.518 124.524ZM360.899 128.889C363.695 129.728 366.63 130.613 369.706 131.545L372.606 121.975C369.522 121.04 366.578 120.152 363.773 119.311L360.899 128.889ZM369.841 131.584C372.563 132.326 375.154 133.355 377.623 134.672L382.329 125.848C379.198 124.178 375.91 122.874 372.472 121.936L369.841 131.584ZM377.74 134.732C379.789 135.757 381.355 137.142 382.536 138.913L390.856 133.366C388.677 130.098 385.763 127.563 382.212 125.788L377.74 134.732ZM382.659 139.09C383.602 140.38 384.356 142.53 384.356 146.08H394.356C394.356 141.23 393.337 136.754 390.733 133.19L382.659 139.09ZM384.356 146.08C384.356 150.564 382.803 153.828 379.732 156.365L386.101 164.075C391.615 159.519 394.356 153.356 394.356 146.08H384.356ZM379.741 156.358C376.698 158.859 372.211 160.4 365.696 160.4V170.4C373.741 170.4 380.734 168.487 386.092 164.082L379.741 156.358ZM420.272 160.92L422.753 156.579L422.753 156.579L420.272 160.92ZM407.812 148.6L403.471 151.081C403.482 151.1 403.493 151.119 403.504 151.138L407.812 148.6ZM407.812 113.6L412.134 116.114C412.14 116.103 412.147 116.092 412.153 116.081L407.812 113.6ZM453.032 100.86L450.485 105.163C450.498 105.17 450.511 105.178 450.523 105.185L453.032 100.86ZM463.952 112.2L459.55 114.57C459.568 114.604 459.587 114.638 459.606 114.672L463.952 112.2ZM467.872 131.38L472.847 131.878C472.849 131.863 472.85 131.848 472.851 131.833L467.872 131.38ZM467.312 134.74V139.74C469.67 139.74 471.707 138.093 472.201 135.788L467.312 134.74ZM410.332 134.74H405.332C405.332 137.501 407.571 139.74 410.332 139.74V134.74ZM410.332 126.34V121.34C407.571 121.34 405.332 123.579 405.332 126.34H410.332ZM461.992 126.34L465.295 130.094C466.857 128.719 467.405 126.521 466.67 124.575C465.936 122.628 464.072 121.34 461.992 121.34V126.34ZM458.492 129.42L453.493 129.324C453.455 131.305 454.591 133.122 456.389 133.956C458.187 134.79 460.307 134.483 461.795 133.174L458.492 129.42ZM455.972 116.96L451.453 119.1C451.476 119.149 451.5 119.197 451.524 119.244L455.972 116.96ZM448.552 108.84L445.925 113.094C445.973 113.124 446.022 113.153 446.071 113.181L448.552 108.84ZM424.472 108.98L426.977 113.307L426.977 113.307L424.472 108.98ZM416.072 117.66L411.691 115.25C411.684 115.263 411.677 115.276 411.67 115.289L416.072 117.66ZM416.212 143.98L411.806 146.344C411.821 146.372 411.836 146.399 411.851 146.426L416.212 143.98ZM425.032 152.94L422.54 157.275C422.555 157.283 422.57 157.292 422.586 157.301L425.032 152.94ZM449.252 154.06L451.175 158.675C451.211 158.66 451.247 158.645 451.283 158.629L449.252 154.06ZM457.792 147.48L461.366 143.984C460.367 142.962 458.979 142.417 457.553 142.486C456.126 142.554 454.797 143.229 453.9 144.341L457.792 147.48ZM464.092 153.92L467.909 157.15C469.575 155.181 469.47 152.267 467.666 150.424L464.092 153.92ZM452.612 162.46L454.616 167.041C454.631 167.034 454.645 167.028 454.66 167.021L452.612 162.46ZM438.052 160.4C432.205 160.4 427.149 159.091 422.753 156.579L417.791 165.261C423.848 168.722 430.645 170.4 438.052 170.4V160.4ZM422.753 156.579C418.288 154.027 414.762 150.545 412.12 146.062L403.504 151.138C407.022 157.109 411.803 161.839 417.791 165.261L422.753 156.579ZM412.153 146.119C409.635 141.712 408.332 136.7 408.332 130.96H398.332C398.332 138.287 400.016 145.035 403.471 151.081L412.153 146.119ZM408.332 130.96C408.332 125.326 409.628 120.42 412.134 116.114L403.49 111.086C400.022 117.046 398.332 123.714 398.332 130.96H408.332ZM412.153 116.081C414.71 111.607 418.144 108.14 422.506 105.602L417.478 96.9583C411.573 100.394 406.888 105.14 403.471 111.119L412.153 116.081ZM422.506 105.602C426.824 103.09 431.686 101.8 437.212 101.8V91.8C430.045 91.8 423.427 93.4968 417.478 96.9583L422.506 105.602ZM437.212 101.8C442.403 101.8 446.775 102.967 450.485 105.163L455.579 96.5571C450.142 93.3395 443.968 91.8 437.212 91.8V101.8ZM450.523 105.185C454.372 107.417 457.365 110.513 459.55 114.57L468.354 109.83C465.313 104.181 461.025 99.7159 455.541 96.5348L450.523 105.185ZM459.606 114.672C461.826 118.577 463.012 123.208 463.012 128.72H473.012C473.012 121.725 471.491 115.343 468.298 109.728L459.606 114.672ZM463.012 128.72C463.012 129.271 462.977 129.999 462.893 130.927L472.851 131.833C472.954 130.708 473.012 129.662 473.012 128.72H463.012ZM462.897 130.882C462.828 131.572 462.679 132.498 462.423 133.692L472.201 135.788C472.505 134.369 472.729 133.055 472.847 131.878L462.897 130.882ZM467.312 129.74H410.332V139.74H467.312V129.74ZM415.332 134.74V126.34H405.332V134.74H415.332ZM410.332 131.34H461.992V121.34H410.332V131.34ZM458.689 122.586L455.189 125.666L461.795 133.174L465.295 130.094L458.689 122.586ZM463.491 129.516C463.596 124.039 462.654 119.027 460.42 114.676L451.524 119.244C452.837 121.8 453.574 125.094 453.493 129.324L463.491 129.516ZM460.491 114.82C458.393 110.39 455.228 106.896 451.033 104.499L446.071 113.181C448.41 114.517 450.191 116.436 451.453 119.1L460.491 114.82ZM451.179 104.586C447.055 102.039 442.223 100.9 436.932 100.9V110.9C440.787 110.9 443.702 111.721 445.925 113.094L451.179 104.586ZM436.932 100.9C431.436 100.9 426.39 102.092 421.967 104.653L426.977 113.307C429.647 111.761 432.908 110.9 436.932 110.9V100.9ZM421.967 104.653C417.6 107.181 414.165 110.752 411.691 115.25L420.453 120.07C422.086 117.101 424.251 114.885 426.977 113.307L421.967 104.653ZM411.67 115.289C409.24 119.801 408.132 124.992 408.132 130.68H418.132C418.132 126.288 418.984 122.799 420.474 120.03L411.67 115.289ZM408.132 130.68C408.132 136.412 409.304 141.682 411.806 146.344L420.618 141.616C419.013 138.625 418.132 135.028 418.132 130.68H408.132ZM411.851 146.426C414.43 151.024 418.009 154.67 422.54 157.275L427.524 148.605C424.588 146.917 422.287 144.59 420.573 141.534L411.851 146.426ZM422.586 157.301C427.251 159.918 432.5 161.16 438.192 161.16V151.16C433.991 151.16 430.467 150.256 427.478 148.579L422.586 157.301ZM438.192 161.16C442.798 161.16 447.146 160.354 451.175 158.675L447.329 149.445C444.638 150.566 441.613 151.16 438.192 151.16V161.16ZM451.283 158.629C455.376 156.81 458.858 154.123 461.684 150.619L453.9 144.341C452.059 146.624 449.848 148.324 447.221 149.491L451.283 158.629ZM454.218 150.976L460.518 157.416L467.666 150.424L461.366 143.984L454.218 150.976ZM460.275 150.69C457.703 153.73 454.492 156.135 450.564 157.899L454.66 167.021C459.879 164.678 464.321 161.39 467.909 157.15L460.275 150.69ZM450.608 157.879C446.803 159.544 442.637 160.4 438.052 160.4V170.4C443.92 170.4 449.461 169.296 454.616 167.041L450.608 157.879ZM493.563 164H488.563C488.563 166.761 490.802 169 493.563 169V164ZM493.563 70.48V65.48C490.802 65.48 488.563 67.7186 488.563 70.48H493.563ZM503.363 70.48H508.363C508.363 67.7186 506.125 65.48 503.363 65.48V70.48ZM503.363 164V169C506.125 169 508.363 166.761 508.363 164H503.363ZM476.903 107.02H471.903C471.903 109.781 474.142 112.02 476.903 112.02V107.02ZM476.903 98.2V93.2C474.142 93.2 471.903 95.4386 471.903 98.2H476.903ZM519.883 98.2H524.883C524.883 95.4386 522.645 93.2 519.883 93.2V98.2ZM519.883 107.02V112.02C522.645 112.02 524.883 109.781 524.883 107.02H519.883ZM498.563 164V70.48H488.563V164H498.563ZM493.563 75.48H503.363V65.48H493.563V75.48ZM498.363 70.48V164H508.363V70.48H498.363ZM503.363 159H493.563V169H503.363V159ZM481.903 107.02V98.2H471.903V107.02H481.903ZM476.903 103.2H519.883V93.2H476.903V103.2ZM514.883 98.2V107.02H524.883V98.2H514.883ZM519.883 102.02H476.903V112.02H519.883V102.02ZM545.142 125.36H540.142C540.142 128.121 542.381 130.36 545.142 130.36V125.36ZM545.142 116.26V111.26C542.381 111.26 540.142 113.499 540.142 116.26H545.142ZM584.062 113.88L581.826 109.408C581.808 109.417 581.79 109.426 581.772 109.435L584.062 113.88ZM591.482 107.16L587.242 104.51C587.234 104.522 587.227 104.535 587.219 104.547L591.482 107.16ZM591.482 86.02L587.183 88.5727C587.215 88.6259 587.247 88.6786 587.281 88.7306L591.482 86.02ZM584.062 79.16L581.668 83.5495C581.72 83.578 581.773 83.6055 581.826 83.6321L584.062 79.16ZM545.142 76.64H540.142C540.142 79.4014 542.381 81.64 545.142 81.64V76.64ZM545.142 67.68V62.68C542.381 62.68 540.142 64.9186 540.142 67.68H545.142ZM589.802 71.32L587.459 75.7367C587.482 75.7493 587.506 75.7616 587.53 75.7738L589.802 71.32ZM600.582 81.26L596.311 83.8597C596.325 83.8821 596.339 83.9044 596.353 83.9265L600.582 81.26ZM600.582 111.78L596.327 109.154C596.322 109.163 596.316 109.172 596.311 109.18L600.582 111.78ZM589.802 121.86L592.075 126.314C592.098 126.302 592.122 126.289 592.146 126.277L589.802 121.86ZM538.562 164H533.562C533.562 166.761 535.801 169 538.562 169V164ZM538.562 67.68V62.68C535.801 62.68 533.562 64.9186 533.562 67.68H538.562ZM548.782 67.68H553.782C553.782 64.9186 551.544 62.68 548.782 62.68V67.68ZM548.782 164V169C551.544 169 553.782 166.761 553.782 164H548.782ZM550.142 125.36V116.26H540.142V125.36H550.142ZM545.142 121.26H573.562V111.26H545.142V121.26ZM573.562 121.26C578.173 121.26 582.475 120.322 586.352 118.325L581.772 109.435C579.489 110.611 576.791 111.26 573.562 111.26V121.26ZM586.298 118.352C590.268 116.367 593.461 113.5 595.745 109.773L587.219 104.547C585.957 106.606 584.203 108.219 581.826 109.408L586.298 118.352ZM595.722 109.81C598.163 105.904 599.282 101.406 599.282 96.52H589.282C589.282 99.8478 588.535 102.442 587.242 104.51L595.722 109.81ZM599.282 96.52C599.282 91.6395 598.165 87.1552 595.684 83.3094L587.281 88.7306C588.533 90.6715 589.282 93.1871 589.282 96.52H599.282ZM595.781 83.4673C593.508 79.6377 590.31 76.6936 586.298 74.6879L581.826 83.6321C584.161 84.7998 585.91 86.4289 587.183 88.5727L595.781 83.4673ZM586.456 74.7705C582.559 72.6447 578.219 71.64 573.562 71.64V81.64C576.745 81.64 579.405 82.3153 581.668 83.5495L586.456 74.7705ZM573.562 71.64H545.142V81.64H573.562V71.64ZM550.142 76.64V67.68H540.142V76.64H550.142ZM545.142 72.68H574.262V62.68H545.142V72.68ZM574.262 72.68C579.329 72.68 583.689 73.7364 587.459 75.7367L592.146 66.9032C586.769 64.0503 580.768 62.68 574.262 62.68V72.68ZM587.53 75.7738C591.297 77.6957 594.19 80.3754 596.311 83.8597L604.853 78.6603C601.747 73.558 597.454 69.6109 592.075 66.8662L587.53 75.7738ZM596.353 83.9265C598.48 87.3015 599.642 91.4311 599.642 96.52H609.642C609.642 89.8489 608.097 83.8051 604.812 78.5935L596.353 83.9265ZM599.642 96.52C599.642 101.496 598.489 105.651 596.327 109.154L604.837 114.406C608.089 109.136 609.642 103.117 609.642 96.52H599.642ZM596.311 109.18C594.18 112.682 591.263 115.425 587.459 117.443L592.146 126.277C597.488 123.442 601.758 119.465 604.853 114.38L596.311 109.18ZM587.53 117.406C583.745 119.337 579.36 120.36 574.262 120.36V130.36C580.737 130.36 586.712 129.05 592.075 126.314L587.53 117.406ZM574.262 120.36H545.142V130.36H574.262V120.36ZM543.562 164V67.68H533.562V164H543.562ZM538.562 72.68H548.782V62.68H538.562V72.68ZM543.782 67.68V164H553.782V67.68H543.782ZM548.782 159H538.562V169H548.782V159ZM631.68 160.92L629.037 165.164C629.056 165.177 629.076 165.189 629.095 165.2L631.68 160.92ZM619.92 148.6L615.53 150.994C615.541 151.015 615.553 151.035 615.564 151.055L619.92 148.6ZM619.92 113.74L615.545 111.318C615.54 111.328 615.535 111.337 615.53 111.346L619.92 113.74ZM631.68 101.42L634.264 105.7C634.284 105.689 634.303 105.677 634.322 105.664L631.68 101.42ZM661.78 99.88L659.46 104.309C659.501 104.331 659.543 104.352 659.585 104.373L661.78 99.88ZM671.44 108.28L667.279 111.053C667.307 111.095 667.335 111.136 667.364 111.176L671.44 108.28ZM676.06 120.74H681.06C681.06 120.545 681.048 120.35 681.025 120.156L676.06 120.74ZM676.06 141.32L681.025 141.904C681.048 141.71 681.06 141.515 681.06 141.32H676.06ZM671.44 153.92L667.329 151.074C667.312 151.098 667.296 151.122 667.279 151.146L671.44 153.92ZM661.78 162.46L664.016 166.932C664.03 166.925 664.043 166.918 664.057 166.911L661.78 162.46ZM666.4 149.16L662.717 145.778C662.704 145.792 662.692 145.806 662.679 145.819L666.4 149.16ZM669.76 118.08L665.266 120.272C665.287 120.316 665.31 120.36 665.333 120.404L669.76 118.08ZM661.78 109.26L659.088 113.473C659.133 113.502 659.178 113.53 659.224 113.558L661.78 109.26ZM637.42 109.26L634.88 104.953C634.863 104.963 634.847 104.973 634.831 104.982L637.42 109.26ZM628.88 118.22L624.519 115.774C624.512 115.786 624.505 115.798 624.499 115.81L628.88 118.22ZM628.88 143.98L624.499 146.39C624.514 146.417 624.529 146.445 624.545 146.472L628.88 143.98ZM672.14 164H667.14C667.14 166.761 669.378 169 672.14 169V164ZM672.14 146.36L667.176 145.761C667.152 145.96 667.14 146.16 667.14 146.36H672.14ZM674.1 130.12L679.064 130.719C679.112 130.316 679.112 129.908 679.062 129.505L674.1 130.12ZM672.14 114.3H667.14C667.14 114.506 667.152 114.711 667.178 114.915L672.14 114.3ZM672.14 98.2V93.2C669.378 93.2 667.14 95.4386 667.14 98.2H672.14ZM681.94 98.2H686.94C686.94 95.4386 684.701 93.2 681.94 93.2V98.2ZM681.94 164V169C684.701 169 686.94 166.761 686.94 164H681.94ZM648.48 160.4C643.06 160.4 638.367 159.117 634.264 156.64L629.095 165.2C634.886 168.696 641.393 170.4 648.48 170.4V160.4ZM634.322 156.676C630.096 154.044 626.762 150.556 624.275 146.145L615.564 151.055C618.864 156.911 623.37 161.636 629.037 165.164L634.322 156.676ZM624.309 146.206C621.949 141.879 620.72 136.93 620.72 131.24H610.72C610.72 138.43 612.29 145.054 615.53 150.994L624.309 146.206ZM620.72 131.24C620.72 125.443 621.955 120.45 624.309 116.134L615.53 111.346C612.284 117.296 610.72 123.97 610.72 131.24H620.72ZM624.294 116.162C626.779 111.673 630.092 108.219 634.264 105.7L629.095 97.1397C623.374 100.594 618.847 105.353 615.545 111.318L624.294 116.162ZM634.322 105.664C638.43 103.107 643.058 101.8 648.34 101.8V91.8C641.301 91.8 634.823 93.573 629.037 97.1755L634.322 105.664ZM648.34 101.8C652.685 101.8 656.35 102.68 659.46 104.309L664.1 95.4508C659.37 92.9733 654.075 91.8 648.34 91.8V101.8ZM659.585 104.373C662.82 105.953 665.355 108.167 667.279 111.053L675.6 105.506C672.671 101.113 668.766 97.7274 663.974 95.3872L659.585 104.373ZM667.364 111.176C669.35 113.971 670.622 117.311 671.094 121.324L681.025 120.156C680.378 114.649 678.569 109.682 675.516 105.384L667.364 111.176ZM671.06 120.74V141.32H681.06V120.74H671.06ZM671.094 140.736C670.621 144.752 669.345 148.161 667.329 151.074L675.551 156.766C678.574 152.399 680.378 147.408 681.025 141.904L671.094 140.736ZM667.279 151.146C665.342 154.053 662.779 156.332 659.502 158.009L664.057 166.911C668.807 164.481 672.684 161.067 675.6 156.693L667.279 151.146ZM659.544 157.988C656.403 159.558 652.751 160.4 648.48 160.4V170.4C654.102 170.4 659.317 169.282 664.016 166.932L659.544 157.988ZM650.02 161.02C658.081 161.02 664.956 158.251 670.12 152.501L662.679 145.819C659.63 149.215 655.585 151.02 650.02 151.02V161.02ZM670.082 152.542C675.295 146.866 677.7 139.551 677.7 131.1H667.7C667.7 137.582 665.905 142.307 662.717 145.778L670.082 152.542ZM677.7 131.1C677.7 125.484 676.583 120.321 674.187 115.756L665.333 120.404C666.856 123.306 667.7 126.823 667.7 131.1H677.7ZM674.254 115.888C671.986 111.24 668.677 107.544 664.335 104.962L659.224 113.558C661.789 115.083 663.8 117.266 665.266 120.272L674.254 115.888ZM664.472 105.047C660.195 102.314 655.263 101.04 649.88 101.04V111.04C653.643 111.04 656.645 111.913 659.088 113.473L664.472 105.047ZM649.88 101.04C644.415 101.04 639.368 102.306 634.88 104.953L639.96 113.567C642.752 111.92 646.011 111.04 649.88 111.04V101.04ZM634.831 104.982C630.502 107.603 627.063 111.239 624.519 115.774L633.24 120.666C634.99 117.547 637.244 115.211 640.009 113.537L634.831 104.982ZM624.499 115.81C621.986 120.379 620.8 125.523 620.8 131.1H630.8C630.8 126.971 631.667 123.527 633.261 120.63L624.499 115.81ZM620.8 131.1C620.8 136.677 621.986 141.821 624.499 146.39L633.261 141.57C631.667 138.673 630.8 135.229 630.8 131.1H620.8ZM624.545 146.472C627.114 150.941 630.62 154.512 635.02 157.107L640.1 148.493C637.219 146.795 634.938 144.486 633.214 141.488L624.545 146.472ZM635.02 157.107C639.508 159.754 644.555 161.02 650.02 161.02V151.02C646.151 151.02 642.892 150.14 640.1 148.493L635.02 157.107ZM677.14 164V146.36H667.14V164H677.14ZM677.104 146.959L679.064 130.719L669.136 129.521L667.176 145.761L677.104 146.959ZM679.062 129.505L677.102 113.685L667.178 114.915L669.138 130.735L679.062 129.505ZM677.14 114.3V98.2H667.14V114.3H677.14ZM672.14 103.2H681.94V93.2H672.14V103.2ZM676.94 98.2V164H686.94V98.2H676.94ZM681.94 159H672.14V169H681.94V159ZM717.074 160.92L714.502 165.207C714.532 165.226 714.563 165.244 714.594 165.261L717.074 160.92ZM704.754 148.46L700.413 150.941C700.424 150.96 700.435 150.979 700.447 150.998L704.754 148.46ZM704.754 113.6L700.447 111.062C700.442 111.07 700.437 111.078 700.432 111.086L704.754 113.6ZM717.074 101.28L714.594 96.9388C714.582 96.9452 714.571 96.9517 714.56 96.9583L717.074 101.28ZM748.434 99.6L746.441 104.185L746.441 104.185L748.434 99.6ZM759.354 107.44L762.928 110.937C764.765 109.06 764.836 106.081 763.091 104.118L759.354 107.44ZM752.914 114.02L749.177 117.342C750.098 118.378 751.408 118.985 752.794 119.019C754.18 119.052 755.518 118.508 756.488 117.517L752.914 114.02ZM744.794 108.28L742.776 112.855C742.814 112.871 742.852 112.888 742.89 112.903L744.794 108.28ZM713.574 118.22L717.929 120.677C717.938 120.661 717.947 120.645 717.955 120.63L713.574 118.22ZM713.574 143.84L709.168 146.204C709.177 146.219 709.185 146.234 709.193 146.25L713.574 143.84ZM722.114 152.66L719.574 156.967L719.574 156.967L722.114 152.66ZM744.934 153.92L746.838 158.543C746.876 158.528 746.914 158.511 746.952 158.495L744.934 153.92ZM753.054 148.04L756.59 144.504C755.616 143.531 754.284 143.002 752.907 143.042C751.531 143.083 750.232 143.689 749.317 144.718L753.054 148.04ZM759.634 154.62L763.366 157.948C765.13 155.97 765.044 152.959 763.17 151.084L759.634 154.62ZM748.434 162.6L746.476 157.999C746.464 158.004 746.452 158.009 746.441 158.015L748.434 162.6ZM734.574 160.4C728.942 160.4 723.973 159.104 719.555 156.579L714.594 165.261C720.628 168.71 727.327 170.4 734.574 170.4V160.4ZM719.647 156.633C715.239 153.988 711.724 150.44 709.062 145.922L700.447 150.998C703.944 156.934 708.643 161.692 714.502 165.207L719.647 156.633ZM709.095 145.979C706.571 141.561 705.274 136.593 705.274 130.96H695.274C695.274 138.207 696.964 144.906 700.413 150.941L709.095 145.979ZM705.274 130.96C705.274 125.326 706.571 120.42 709.076 116.114L700.432 111.086C696.964 117.046 695.274 123.714 695.274 130.96H705.274ZM709.062 116.138C711.717 111.633 715.212 108.148 719.589 105.602L714.56 96.9583C708.669 100.385 703.952 105.113 700.447 111.062L709.062 116.138ZM719.555 105.621C723.973 103.096 728.942 101.8 734.574 101.8V91.8C727.327 91.8 720.628 93.4903 714.594 96.9388L719.555 105.621ZM734.574 101.8C738.874 101.8 742.812 102.608 746.441 104.185L750.428 95.0146C745.47 92.8591 740.167 91.8 734.574 91.8V101.8ZM746.441 104.185C750.096 105.775 753.133 107.967 755.617 110.762L763.091 104.118C759.602 100.193 755.359 97.1586 750.428 95.0146L746.441 104.185ZM755.781 103.943L749.341 110.523L756.488 117.517L762.928 110.937L755.781 103.943ZM756.651 110.698C753.898 107.6 750.56 105.247 746.698 103.657L742.89 112.903C745.375 113.926 747.451 115.4 749.177 117.342L756.651 110.698ZM746.812 103.705C742.972 102.011 738.874 101.18 734.574 101.18V111.18C737.554 111.18 740.27 111.749 742.776 112.855L746.812 103.705ZM734.574 101.18C729.11 101.18 724.062 102.446 719.574 105.093L724.654 113.707C727.446 112.06 730.705 111.18 734.574 111.18V101.18ZM719.574 105.093C715.155 107.7 711.675 111.298 709.193 115.81L717.955 120.63C719.58 117.676 721.794 115.394 724.654 113.707L719.574 105.093ZM709.219 115.763C706.679 120.266 705.494 125.386 705.494 130.96H715.494C715.494 126.827 716.363 123.454 717.929 120.677L709.219 115.763ZM705.494 130.96C705.494 136.464 706.688 141.582 709.168 146.204L717.98 141.476C716.353 138.444 715.494 134.976 715.494 130.96H705.494ZM709.193 146.25C711.675 150.762 715.155 154.36 719.574 156.967L724.654 148.353C721.794 146.666 719.58 144.384 717.955 141.43L709.193 146.25ZM719.574 156.967C724.062 159.614 729.11 160.88 734.574 160.88V150.88C730.705 150.88 727.446 150 724.654 148.353L719.574 156.967ZM734.574 160.88C738.903 160.88 743.01 160.12 746.838 158.543L743.03 149.297C740.512 150.334 737.712 150.88 734.574 150.88V160.88ZM746.952 158.495C750.763 156.814 754.061 154.433 756.791 151.362L749.317 144.718C747.567 146.687 745.453 148.226 742.916 149.345L746.952 158.495ZM749.519 151.576L756.099 158.156L763.17 151.084L756.59 144.504L749.519 151.576ZM755.903 151.292C753.328 154.179 750.206 156.412 746.476 157.999L750.392 167.201C755.435 165.055 759.78 161.968 763.366 157.948L755.903 151.292ZM746.441 158.015C742.812 159.592 738.874 160.4 734.574 160.4V170.4C740.167 170.4 745.47 169.341 750.428 167.185L746.441 158.015ZM818.604 164L815.061 167.528C815.999 168.47 817.274 169 818.604 169V164ZM785.004 130.26L781.522 126.672C780.562 127.603 780.015 128.88 780.004 130.217C779.993 131.554 780.517 132.841 781.461 133.788L785.004 130.26ZM818.044 98.2V93.2C816.744 93.2 815.495 93.7063 814.562 94.6116L818.044 98.2ZM830.224 98.2L833.688 101.805C835.16 100.391 835.624 98.2252 834.862 96.3325C834.1 94.4398 832.264 93.2 830.224 93.2V98.2ZM794.244 132.78L789.25 132.53C789.148 134.578 790.305 136.48 792.17 137.33C794.036 138.18 796.231 137.805 797.708 136.385L794.244 132.78ZM794.524 127.18L798.046 123.631C796.645 122.241 794.558 121.805 792.717 122.518C790.877 123.231 789.629 124.959 789.53 126.93L794.524 127.18ZM831.624 164V169C833.65 169 835.475 167.778 836.247 165.905C837.018 164.032 836.584 161.878 835.146 160.451L831.624 164ZM776.184 164H771.184C771.184 166.761 773.422 169 776.184 169V164ZM776.184 64.88V59.88C773.422 59.88 771.184 62.1186 771.184 64.88H776.184ZM785.984 64.88H790.984C790.984 62.1186 788.745 59.88 785.984 59.88V64.88ZM785.984 164V169C788.745 169 790.984 166.761 790.984 164H785.984ZM822.147 160.472L788.547 126.732L781.461 133.788L815.061 167.528L822.147 160.472ZM788.486 133.848L821.526 101.788L814.562 94.6116L781.522 126.672L788.486 133.848ZM818.044 103.2H830.224V93.2H818.044V103.2ZM826.759 94.595L790.779 129.175L797.708 136.385L833.688 101.805L826.759 94.595ZM799.238 133.03L799.518 127.43L789.53 126.93L789.25 132.53L799.238 133.03ZM791.002 130.729L828.102 167.549L835.146 160.451L798.046 123.631L791.002 130.729ZM831.624 159H818.604V169H831.624V159ZM781.184 164V64.88H771.184V164H781.184ZM776.184 69.88H785.984V59.88H776.184V69.88ZM780.984 64.88V164H790.984V64.88H780.984ZM785.984 159H776.184V169H785.984V159Z" fill="#E72264"/>
<g filter="url(#filter0_i_234_1270)">
<path d="M121.18 157.05C121.001 157.36 120.671 157.551 120.313 157.551H97.2517C96.894 157.551 96.5636 157.36 96.3851 157.05L84.8523 137.027C84.6744 136.718 84.6744 136.338 84.8523 136.029L96.3851 116.006C96.5636 115.696 96.894 115.505 97.2517 115.505H120.313C120.671 115.505 121.001 115.696 121.18 116.006L132.713 136.029C132.89 136.338 132.89 136.718 132.713 137.027L121.18 157.05ZM108.37 94.0521C108.747 93.3706 109.723 93.3624 110.112 94.0374L117.051 106.102C117.434 106.768 116.953 107.6 116.184 107.6H102.373C101.581 107.6 101.104 106.724 101.532 106.059L102.938 103.875L108.37 94.0521ZM56.0594 81.8083C56.0564 81.6368 56.0594 83.7294 56.0594 83.5549C56.0594 71.099 66.1304 61 78.5547 61C90.979 61 101.038 69.5096 101.038 81.9685C101.038 82.0599 101.039 82.5866 101.039 83.0921C101.04 83.6378 100.601 84.0753 100.055 84.0753H57.066C56.5157 84.0753 56.0688 83.6308 56.066 83.0806L56.0594 81.8083ZM40.6335 107.6C39.8645 107.6 39.3833 106.768 39.7667 106.102L46.7229 94.0076C47.1074 93.3391 48.072 93.3391 48.4565 94.0076L55.4127 106.102C55.7961 106.768 55.3149 107.6 54.5459 107.6H41.0914H40.6335ZM69.9892 136.444C69.9886 136.443 69.9877 136.443 69.9877 136.444C69.9866 148.902 59.916 159 47.4924 159C35.068 159 25 148.904 25 136.445C25 123.986 35.071 113.887 47.4953 113.887C59.919 113.887 69.9895 123.985 69.9907 136.443C69.9907 136.444 69.9897 136.444 69.9892 136.444V136.444ZM98.8059 91.9771C99.5754 91.9771 100.057 92.81 99.6722 93.4767L79.2441 128.901C78.8593 129.568 77.8963 129.568 77.5115 128.901L57.0862 93.4795C56.7018 92.8128 57.1829 91.98 57.9524 91.9799L95.1443 91.9771H98.8059ZM84.567 157.578H71.3007C70.5316 157.578 70.0504 156.746 70.4338 156.079L77.39 143.985C77.7745 143.316 78.7391 143.316 79.1237 143.985L86.0798 156.079C86.4633 156.746 85.9821 157.578 85.213 157.578H84.567Z" fill="white"/>
</g>
<defs>
<filter id="filter0_i_234_1270" x="25" y="61" width="107.846" height="102" filterUnits="userSpaceOnUse" color-interpolation-filters="sRGB">
<feFlood flood-opacity="0" result="BackgroundImageFix"/>
<feBlend mode="normal" in="SourceGraphic" in2="BackgroundImageFix" result="shape"/>
<feColorMatrix in="SourceAlpha" type="matrix" values="0 0 0 0 0 0 0 0 0 0 0 0 0 0 0 0 0 0 127 0" result="hardAlpha"/>
<feOffset dy="4"/>
<feGaussianBlur stdDeviation="2"/>
<feComposite in2="hardAlpha" operator="arithmetic" k2="-1" k3="1"/>
<feColorMatrix type="matrix" values="0 0 0 0 0 0 0 0 0 0 0 0 0 0 0 0 0 0 0.25 0"/>
<feBlend mode="normal" in2="shape" result="effect1_innerShadow_234_1270"/>
</filter>
</defs>
</svg>
